<svg xmlns="http://www.w3.org/2000/svg" viewBox="0 0 100 125" x="0px" y="0px"><g fill="none" fill-rule="evenodd"><path d="M 56.35 30 L 56.35 26.437 L 52.25 14.549 C 51.909 13.545 52.44 12.453 53.45 12.1 C 54.45 11.758 55.55 12.29 55.895 13.295 L 58.63 21.22 C 59.22 20.77 59.907 20.428 60.65 20.232 C 59.26 19.654 58.27 18.278 58.27 16.673 C 58.27 14.546 59.997 12.822 62.12 12.822 C 64.25 12.822 65.974 14.546 65.974 16.673 C 65.974 18.278 64.992 19.654 63.6 20.232 C 64.33 20.426 65.01 20.762 65.6 21.21 L 68.48 13.304 C 68.842 12.305 69.946 11.792 70.945 12.156 C 71.951 12.522 72.46 13.623 72.1 14.621 L 67.899 26.15 L 67.899 30 L 70.994 30 C 72.1 30 73.17 30.876 73.37 31.957 L 77 51 L 23 51 L 26.627 31.957 C 26.833 30.876 27.898 30 29.01 30 L 32.35 30 L 32.35 25.82 C 32.35 25.572 32.363 25.329 32.394 25.09 L 27.492 16.931 C 26.945 16.02 27.23 14.843 28.15 14.291 C 29.06 13.744 30.24 14.04 30.792 14.948 L 34.583 21.257 C 35.19 20.786 35.889 20.433 36.652 20.232 C 35.26 19.654 34.27 18.278 34.27 16.673 C 34.27 14.546 35.997 12.822 38.12 12.822 C 40.25 12.822 41.974 14.546 41.974 16.673 C 41.974 18.278 40.992 19.654 39.596 20.232 C 40.54 20.481 41.39 20.963 42.08 21.613 L 46.09 14.948 C 46.633 14.04 47.815 13.744 48.726 14.291 C 49.644 14.843 49.933 16.02 49.39 16.931 L 43.899 26.06 L 43.899 30 L 56.35 30 M 28.995 61 C 22.77 74.57 9.284 90.62 5.194 95 L 8.377 95 C 13.03 89.65 25.19 74.63 31.834 61 L 68.05 61 C 74.69 74.63 86.85 89.65 91.51 95 L 94.69 95 C 90.6 90.62 77.12 74.57 70.891 61 L 74.965 61 C 76.08 61 76.968 60.11 76.968 59 L 76.968 53 L 22.932 53 L 22.932 59 C 22.932 60.11 23.829 61 24.936 61 L 28.995 61 M 31.25 68.12 L 68.856 68.12 C 69.62 69.48 70.39 70.818 71.18 72.12 L 28.934 72.12 C 29.717 70.818 30.493 69.48 31.25 68.12 M 34.912 61 L 65.2 61 C 65.996 62.699 66.836 64.37 67.7 66 L 32.406 66 C 33.27 64.37 34.11 62.699 34.912 61 M 27.706 74.12 L 72.4 74.12 C 73.5 75.863 74.59 77.53 75.67 79.12 L 24.442 79.12 C 25.519 77.53 26.615 75.863 27.706 74.12 M 22.748 81.56 L 77.36 81.56 C 78.65 83.38 79.889 85.05 81.04 86.56 L 19.07 86.56 C 20.222 85.05 21.462 83.38 22.748 81.56 M 82.94 89 L 17.593 89 L 13 95 L 88 95 L 87.98 95 C 87.98 95 85.946 92.79 82.94 89" fill="#000000"/></g></svg>