<svg xmlns="http://www.w3.org/2000/svg" viewBox="0 0 100 125" x="0px" y="0px"><g fill="none" fill-rule="evenodd"><path d="M 68.55 62 L 68.09 62 C 68.07 61.964 68.05 61.929 68.03 61.893 C 68.03 61.893 65.15 61.893 65.15 61.893 C 65.799 63.28 66.48 64.65 67.18 66 L 32.932 66 C 33.632 64.65 34.31 63.28 34.962 61.893 C 34.962 61.893 32.08 61.893 32.08 61.893 C 32.06 61.929 32.04 61.964 32.02 62 L 31.34 62 C 24.602 75.36 12.92 89.79 8.377 95 L 5.194 95 C 9.184 90.73 22.12 75.34 28.525 62 L 24.936 62 C 23.829 62 22.932 61.11 22.932 60 L 22.932 54 L 76.968 54 L 76.968 60 C 76.968 61.11 76.08 62 74.965 62 L 71.36 62 C 77.77 75.34 90.7 90.73 94.69 95 L 91.51 95 C 86.966 89.79 75.28 75.36 68.55 62 M 31.805 68.12 L 68.31 68.12 C 69.05 69.48 69.809 70.816 70.58 72.12 L 29.531 72.12 C 30.3 70.816 31.06 69.48 31.805 68.12 M 28.326 74.12 L 71.784 74.12 C 72.853 75.857 73.93 77.53 74.993 79.12 L 25.12 79.12 C 26.18 77.53 27.26 75.857 28.326 74.12 M 23.45 81.56 L 76.66 81.56 C 77.916 83.36 79.14 85.04 80.28 86.56 L 19.83 86.56 C 20.975 85.04 22.19 83.36 23.45 81.56 M 17.958 89 L 82.15 89 C 84.33 91.79 86.1 93.86 87.09 95 L 13.02 95 C 14.01 93.86 15.776 91.79 17.958 89 M 38 32 C 38 31.389 38.05 30.788 38.13 30.2 L 24.415 16.482 C 22.855 14.922 22.86 12.387 24.419 10.828 C 25.981 9.266 28.509 9.262 30.07 10.825 L 42.16 22.914 C 43.522 21.739 45.15 20.865 46.94 20.394 C 44.04 19.19 42 16.334 42 13 C 42 8.582 45.582 5 50 5 C 54.42 5 58 8.582 58 13 C 58 16.334 55.96 19.19 53.06 20.394 C 54.851 20.864 56.48 21.739 57.839 22.914 L 69.928 10.825 C 71.49 9.262 74.02 9.266 75.58 10.828 C 77.14 12.387 77.15 14.922 75.59 16.482 L 61.866 30.2 C 61.954 30.788 62 31.389 62 32 L 38 32 M 26.587 34.962 C 26.815 33.878 27.898 33 29.01 33 L 70.994 33 C 72.1 33 73.18 33.878 73.41 34.962 L 77 52 L 23 52 L 26.587 34.962" fill="#000000"/></g></svg>