<svg height="512pt" viewBox="0 -106 512 512" width="512pt" xmlns="http://www.w3.org/2000/svg"><path d="m432 210h15c24.851562 0 45-20.148438 45-45v-15h20v-30h-20v-75c0-24.851562-20.148438-45-45-45h-51v60h-85c-2.761719 0-5-2.238281-5-5v-10c0-24.851562-20.148438-45-45-45h-55v60h-85c-2.761719 0-5-2.238281-5-5v-10c0-24.851562-20.148438-45-45-45h-51v120h-20v30h20v15c0 24.851562 20.148438 45 45 45h15c0 33.085938 26.914062 60 60 60s60-26.914062 60-60h112c0 33.085938 26.914062 60 60 60s60-26.914062 60-60zm-292 30c-16.542969 0-30-13.457031-30-30h60c0 16.542969-13.457031 30-30 30zm-75-60c-8.285156 0-15-6.714844-15-15v-135h21c8.285156 0 15 6.714844 15 15v10c0 19.328125 15.671875 35 35 35h115v-60h25c8.285156 0 15 6.714844 15 15v10c0 19.328125 15.671875 35 35 35h115v-60h21c8.285156 0 15 6.714844 15 15v120c0 8.285156-6.714844 15-15 15zm307 60c-16.542969 0-30-13.457031-30-30h60c0 16.542969-13.457031 30-30 30zm0 0"/><path d="m0 270v30h512v-30zm0 0"/><path d="m86 120h150v30h-150zm0 0"/><path d="m276 120h150v30h-150zm0 0"/></svg>